<svg style="transition:.3s" width="100%" height="500px" xmlns="http://www.w3.org/2000/svg" transform="rotate(180)">
  <defs>
    <linearGradient id="prefix__a" x1="0" x2="0" y1="1" y2="0">
      <stop stop-color="rgba(0, 216.124, 255, 1)" offset="0%" />
      <stop stop-color="rgba(255, 13.031, 218.384, 1)" offset="100%" />
    </linearGradient>
  </defs>
  <path fill="url(#prefix__a)"
    d="M0 196h60c60 0 180 0 300 40.8C480 278 600 359 720 359.3c120-.3 240-81.3 360-106.1 120-24.2 240 7.8 360-16.4 120-24.8 240-105.8 360-98 120 8.2 240 106.2 360 138.9 120 32.3 240 .3 360-24.5 120-24.2 240-41.2 360-49 120-8.2 240-8.2 360 24.5 120 32.3 240 98.3 360 73.5 120-24.2 240-139.2 360-196 120-57.2 240-57.2 360 0 120 56.8 240 171.8 360 171.5 120 .3 240-114.7 360-163.4C5160 65 5280 82 5400 73.5s240-40.5 360-49S6000 33 6120 49s240 33 360 98 240 180 360 179.7c120 .3 240-114.7 360-163.4 120-49.3 240-32.3 360 0 120 32.7 240 81.7 360 57.2S8160 98 8280 106.2c120 7.8 240 122.8 300 179.6l60 57.2v147H0z" />
</svg>